<mxfile host="app.diagrams.net" modified="2023-06-26T11:15:49.934Z" agent="Mozilla/5.0 (Windows NT 10.0; Win64; x64) AppleWebKit/537.36 (KHTML, like Gecko) Chrome/114.0.0.0 Safari/537.36 Edg/114.0.1823.58" etag="sEV1aN6T_6w1uBN8JdSs" version="21.3.8" type="device">
  <diagram name="Page-1" id="EdblPIsZy7peGODs_JL8">
    <mxGraphModel dx="1477" dy="626" grid="1" gridSize="10" guides="1" tooltips="1" connect="1" arrows="1" fold="1" page="1" pageScale="1" pageWidth="850" pageHeight="1100" math="0" shadow="0">
      <root>
        <mxCell id="0" />
        <mxCell id="1" parent="0" />
        <mxCell id="Qq3sNu33wyWDEG8Uxjxb-1" value="AWS Account" style="points=[[0,0],[0.25,0],[0.5,0],[0.75,0],[1,0],[1,0.25],[1,0.5],[1,0.75],[1,1],[0.75,1],[0.5,1],[0.25,1],[0,1],[0,0.75],[0,0.5],[0,0.25]];outlineConnect=0;gradientColor=none;html=1;whiteSpace=wrap;fontSize=12;fontStyle=0;container=1;pointerEvents=0;collapsible=0;recursiveResize=0;shape=mxgraph.aws4.group;grIcon=mxgraph.aws4.group_account;strokeColor=#CD2264;fillColor=none;verticalAlign=top;align=left;spacingLeft=30;fontColor=#CD2264;dashed=0;" vertex="1" parent="1">
          <mxGeometry x="70" y="150" width="210" height="130" as="geometry" />
        </mxCell>
        <mxCell id="Qq3sNu33wyWDEG8Uxjxb-2" value="ComSRV" style="text;html=1;align=center;verticalAlign=middle;resizable=0;points=[];autosize=1;strokeColor=none;fillColor=none;" vertex="1" parent="Qq3sNu33wyWDEG8Uxjxb-1">
          <mxGeometry x="70" y="50" width="70" height="30" as="geometry" />
        </mxCell>
        <mxCell id="Qq3sNu33wyWDEG8Uxjxb-13" style="edgeStyle=orthogonalEdgeStyle;rounded=0;orthogonalLoop=1;jettySize=auto;html=1;entryX=1;entryY=0.5;entryDx=0;entryDy=0;" edge="1" parent="1" source="Qq3sNu33wyWDEG8Uxjxb-3" target="Qq3sNu33wyWDEG8Uxjxb-5">
          <mxGeometry relative="1" as="geometry">
            <Array as="points">
              <mxPoint x="690" y="425" />
            </Array>
          </mxGeometry>
        </mxCell>
        <mxCell id="Qq3sNu33wyWDEG8Uxjxb-3" value="AWS Account" style="points=[[0,0],[0.25,0],[0.5,0],[0.75,0],[1,0],[1,0.25],[1,0.5],[1,0.75],[1,1],[0.75,1],[0.5,1],[0.25,1],[0,1],[0,0.75],[0,0.5],[0,0.25]];outlineConnect=0;gradientColor=none;html=1;whiteSpace=wrap;fontSize=12;fontStyle=0;container=1;pointerEvents=0;collapsible=0;recursiveResize=0;shape=mxgraph.aws4.group;grIcon=mxgraph.aws4.group_account;strokeColor=#CD2264;fillColor=none;verticalAlign=top;align=left;spacingLeft=30;fontColor=#CD2264;dashed=0;" vertex="1" parent="1">
          <mxGeometry x="620" y="148" width="130" height="130" as="geometry" />
        </mxCell>
        <mxCell id="Qq3sNu33wyWDEG8Uxjxb-4" value="oas Account" style="text;html=1;align=center;verticalAlign=middle;resizable=0;points=[];autosize=1;strokeColor=none;fillColor=none;" vertex="1" parent="1">
          <mxGeometry x="637" y="196" width="90" height="30" as="geometry" />
        </mxCell>
        <mxCell id="Qq3sNu33wyWDEG8Uxjxb-16" style="edgeStyle=orthogonalEdgeStyle;rounded=0;orthogonalLoop=1;jettySize=auto;html=1;entryX=0.522;entryY=0.951;entryDx=0;entryDy=0;entryPerimeter=0;" edge="1" parent="1" source="Qq3sNu33wyWDEG8Uxjxb-5" target="Qq3sNu33wyWDEG8Uxjxb-10">
          <mxGeometry relative="1" as="geometry">
            <Array as="points">
              <mxPoint x="551" y="710" />
              <mxPoint x="272" y="710" />
            </Array>
          </mxGeometry>
        </mxCell>
        <mxCell id="Qq3sNu33wyWDEG8Uxjxb-31" style="edgeStyle=orthogonalEdgeStyle;rounded=0;orthogonalLoop=1;jettySize=auto;html=1;" edge="1" parent="1" source="Qq3sNu33wyWDEG8Uxjxb-5" target="Qq3sNu33wyWDEG8Uxjxb-3">
          <mxGeometry relative="1" as="geometry">
            <Array as="points">
              <mxPoint x="556" y="210" />
            </Array>
          </mxGeometry>
        </mxCell>
        <mxCell id="Qq3sNu33wyWDEG8Uxjxb-5" value="AWS Account" style="points=[[0,0],[0.25,0],[0.5,0],[0.75,0],[1,0],[1,0.25],[1,0.5],[1,0.75],[1,1],[0.75,1],[0.5,1],[0.25,1],[0,1],[0,0.75],[0,0.5],[0,0.25]];outlineConnect=0;gradientColor=none;html=1;whiteSpace=wrap;fontSize=12;fontStyle=0;container=1;pointerEvents=0;collapsible=0;recursiveResize=0;shape=mxgraph.aws4.group;grIcon=mxgraph.aws4.group_account;strokeColor=#CD2264;fillColor=none;verticalAlign=top;align=left;spacingLeft=30;fontColor=#CD2264;dashed=0;" vertex="1" parent="1">
          <mxGeometry x="491" y="360" width="130" height="130" as="geometry" />
        </mxCell>
        <mxCell id="Qq3sNu33wyWDEG8Uxjxb-6" value="Network" style="text;html=1;align=center;verticalAlign=middle;resizable=0;points=[];autosize=1;strokeColor=none;fillColor=none;" vertex="1" parent="1">
          <mxGeometry x="518" y="408" width="70" height="30" as="geometry" />
        </mxCell>
        <mxCell id="Qq3sNu33wyWDEG8Uxjxb-7" value="AWS Account" style="points=[[0,0],[0.25,0],[0.5,0],[0.75,0],[1,0],[1,0.25],[1,0.5],[1,0.75],[1,1],[0.75,1],[0.5,1],[0.25,1],[0,1],[0,0.75],[0,0.5],[0,0.25]];outlineConnect=0;gradientColor=none;html=1;whiteSpace=wrap;fontSize=12;fontStyle=0;container=1;pointerEvents=0;collapsible=0;recursiveResize=0;shape=mxgraph.aws4.group;grIcon=mxgraph.aws4.group_account;strokeColor=#CD2264;fillColor=none;verticalAlign=top;align=left;spacingLeft=30;fontColor=#CD2264;dashed=0;" vertex="1" parent="1">
          <mxGeometry x="141" y="440" width="260" height="220" as="geometry" />
        </mxCell>
        <mxCell id="Qq3sNu33wyWDEG8Uxjxb-8" value="Inspection" style="text;html=1;align=center;verticalAlign=middle;resizable=0;points=[];autosize=1;strokeColor=none;fillColor=none;" vertex="1" parent="Qq3sNu33wyWDEG8Uxjxb-7">
          <mxGeometry x="20" y="10" width="80" height="30" as="geometry" />
        </mxCell>
        <mxCell id="Qq3sNu33wyWDEG8Uxjxb-9" value="Ingress" style="text;html=1;align=center;verticalAlign=middle;resizable=0;points=[];autosize=1;strokeColor=none;fillColor=none;" vertex="1" parent="Qq3sNu33wyWDEG8Uxjxb-7">
          <mxGeometry x="100" y="65" width="60" height="30" as="geometry" />
        </mxCell>
        <mxCell id="Qq3sNu33wyWDEG8Uxjxb-19" style="edgeStyle=orthogonalEdgeStyle;rounded=0;orthogonalLoop=1;jettySize=auto;html=1;" edge="1" parent="Qq3sNu33wyWDEG8Uxjxb-7" source="Qq3sNu33wyWDEG8Uxjxb-10" target="Qq3sNu33wyWDEG8Uxjxb-18">
          <mxGeometry relative="1" as="geometry" />
        </mxCell>
        <mxCell id="Qq3sNu33wyWDEG8Uxjxb-10" value="Egress" style="text;html=1;align=center;verticalAlign=middle;resizable=0;points=[];autosize=1;strokeColor=none;fillColor=none;" vertex="1" parent="Qq3sNu33wyWDEG8Uxjxb-7">
          <mxGeometry x="100" y="159" width="60" height="30" as="geometry" />
        </mxCell>
        <mxCell id="Qq3sNu33wyWDEG8Uxjxb-20" style="edgeStyle=orthogonalEdgeStyle;rounded=0;orthogonalLoop=1;jettySize=auto;html=1;" edge="1" parent="Qq3sNu33wyWDEG8Uxjxb-7" source="Qq3sNu33wyWDEG8Uxjxb-18">
          <mxGeometry relative="1" as="geometry">
            <mxPoint x="-101" y="174" as="targetPoint" />
          </mxGeometry>
        </mxCell>
        <mxCell id="Qq3sNu33wyWDEG8Uxjxb-18" value="Internet&#xa;gateway" style="sketch=0;outlineConnect=0;fontColor=#232F3E;gradientColor=none;strokeColor=#232F3E;fillColor=#ffffff;dashed=0;verticalLabelPosition=bottom;verticalAlign=top;align=center;html=1;fontSize=12;fontStyle=0;aspect=fixed;shape=mxgraph.aws4.resourceIcon;resIcon=mxgraph.aws4.internet_gateway;" vertex="1" parent="Qq3sNu33wyWDEG8Uxjxb-7">
          <mxGeometry x="-20" y="154" width="40" height="40" as="geometry" />
        </mxCell>
        <mxCell id="Qq3sNu33wyWDEG8Uxjxb-21" style="edgeStyle=orthogonalEdgeStyle;rounded=0;orthogonalLoop=1;jettySize=auto;html=1;" edge="1" parent="1" source="Qq3sNu33wyWDEG8Uxjxb-17" target="Qq3sNu33wyWDEG8Uxjxb-9">
          <mxGeometry relative="1" as="geometry" />
        </mxCell>
        <mxCell id="Qq3sNu33wyWDEG8Uxjxb-17" value="Internet&#xa;gateway" style="sketch=0;outlineConnect=0;fontColor=#232F3E;gradientColor=none;strokeColor=#232F3E;fillColor=#ffffff;dashed=0;verticalLabelPosition=bottom;verticalAlign=top;align=center;html=1;fontSize=12;fontStyle=0;aspect=fixed;shape=mxgraph.aws4.resourceIcon;resIcon=mxgraph.aws4.internet_gateway;" vertex="1" parent="1">
          <mxGeometry x="121" y="500" width="40" height="40" as="geometry" />
        </mxCell>
        <mxCell id="Qq3sNu33wyWDEG8Uxjxb-22" value="" style="endArrow=classic;html=1;rounded=0;" edge="1" parent="1">
          <mxGeometry width="50" height="50" relative="1" as="geometry">
            <mxPoint x="50" y="520" as="sourcePoint" />
            <mxPoint x="120" y="520" as="targetPoint" />
            <Array as="points">
              <mxPoint x="40" y="520" />
              <mxPoint x="50" y="520" />
            </Array>
          </mxGeometry>
        </mxCell>
        <mxCell id="Qq3sNu33wyWDEG8Uxjxb-23" value="Ingress" style="text;html=1;align=center;verticalAlign=middle;resizable=0;points=[];autosize=1;strokeColor=none;fillColor=none;" vertex="1" parent="1">
          <mxGeometry x="40" y="480" width="60" height="30" as="geometry" />
        </mxCell>
        <mxCell id="Qq3sNu33wyWDEG8Uxjxb-24" value="Egress" style="text;html=1;align=center;verticalAlign=middle;resizable=0;points=[];autosize=1;strokeColor=none;fillColor=none;" vertex="1" parent="1">
          <mxGeometry x="40" y="578" width="60" height="30" as="geometry" />
        </mxCell>
        <mxCell id="Qq3sNu33wyWDEG8Uxjxb-26" style="edgeStyle=orthogonalEdgeStyle;rounded=0;orthogonalLoop=1;jettySize=auto;html=1;entryX=0;entryY=0.5;entryDx=0;entryDy=0;" edge="1" parent="1" source="Qq3sNu33wyWDEG8Uxjxb-9" target="Qq3sNu33wyWDEG8Uxjxb-5">
          <mxGeometry relative="1" as="geometry">
            <Array as="points">
              <mxPoint x="271" y="420" />
              <mxPoint x="491" y="420" />
            </Array>
          </mxGeometry>
        </mxCell>
        <mxCell id="Qq3sNu33wyWDEG8Uxjxb-27" value="Egress" style="text;html=1;align=center;verticalAlign=middle;resizable=0;points=[];autosize=1;strokeColor=none;fillColor=none;" vertex="1" parent="1">
          <mxGeometry x="690" y="378" width="60" height="30" as="geometry" />
        </mxCell>
        <mxCell id="Qq3sNu33wyWDEG8Uxjxb-28" value="Egress" style="text;html=1;align=center;verticalAlign=middle;resizable=0;points=[];autosize=1;strokeColor=none;fillColor=none;" vertex="1" parent="1">
          <mxGeometry x="561" y="600" width="60" height="30" as="geometry" />
        </mxCell>
        <mxCell id="Qq3sNu33wyWDEG8Uxjxb-29" value="Ingress" style="text;html=1;align=center;verticalAlign=middle;resizable=0;points=[];autosize=1;strokeColor=none;fillColor=none;" vertex="1" parent="1">
          <mxGeometry x="350" y="388" width="60" height="30" as="geometry" />
        </mxCell>
        <mxCell id="Qq3sNu33wyWDEG8Uxjxb-30" value="Ingress" style="text;html=1;align=center;verticalAlign=middle;resizable=0;points=[];autosize=1;strokeColor=none;fillColor=none;" vertex="1" parent="1">
          <mxGeometry x="488.65" y="260" width="60" height="30" as="geometry" />
        </mxCell>
        <mxCell id="Qq3sNu33wyWDEG8Uxjxb-33" value="Public Hosted Zone" style="text;html=1;align=center;verticalAlign=middle;resizable=0;points=[];autosize=1;strokeColor=none;fillColor=none;" vertex="1" parent="1">
          <mxGeometry x="180" y="38" width="130" height="30" as="geometry" />
        </mxCell>
        <mxCell id="Qq3sNu33wyWDEG8Uxjxb-34" value="" style="sketch=0;outlineConnect=0;fontColor=#232F3E;gradientColor=none;fillColor=#4D27AA;strokeColor=none;dashed=0;verticalLabelPosition=bottom;verticalAlign=top;align=center;html=1;fontSize=12;fontStyle=0;aspect=fixed;pointerEvents=1;shape=mxgraph.aws4.hosted_zone;" vertex="1" parent="1">
          <mxGeometry x="190" y="68.62" width="98.65" height="97.38" as="geometry" />
        </mxCell>
        <mxCell id="Qq3sNu33wyWDEG8Uxjxb-35" value="mahindrafinance.in" style="text;strokeColor=none;align=center;fillColor=none;html=1;verticalAlign=middle;whiteSpace=wrap;rounded=0;" vertex="1" parent="1">
          <mxGeometry x="240" y="102.31" width="60" height="30" as="geometry" />
        </mxCell>
        <mxCell id="Qq3sNu33wyWDEG8Uxjxb-36" value="oas.mahindrafinance.in" style="text;html=1;align=center;verticalAlign=middle;resizable=0;points=[];autosize=1;strokeColor=none;fillColor=none;" vertex="1" parent="1">
          <mxGeometry x="190" y="166" width="150" height="30" as="geometry" />
        </mxCell>
      </root>
    </mxGraphModel>
  </diagram>
</mxfile>
